<?xml version="1.0" standalone="no"?>
<!DOCTYPE svg PUBLIC "-//W3C//DTD SVG 20010904//EN"
 "http://www.w3.org/TR/2001/REC-SVG-20010904/DTD/svg10.dtd">
<svg version="1.0" xmlns="http://www.w3.org/2000/svg"
 width="300.000000pt" height="300.000000pt" viewBox="0 0 300.000000 300.000000"
 preserveAspectRatio="xMidYMid meet">
<metadata>
Created by potrace 1.11, written by Peter Selinger 2001-2013
</metadata>
<g transform="translate(0.000000,300.000000) scale(0.100000,-0.100000)"
fill="#000000" stroke="none">
<path d="M150 1500 l0 -1109 1350 0 1350 0 0 1109 0 1108 -1350 0 -1350 0 0
-1108z m2638 1046 c5 -3 8 -472 8 -1058 l-1 -1053 -1297 0 -1298 0 0 1057 c0
981 1 1057 17 1060 29 5 2562 0 2571 -6z"/>
<path d="M446 2470 c-75 -5 -80 -6 -85 -30 -9 -36 -6 -1899 3 -1907 14 -14
588 -4 696 12 19 3 46 7 60 9 103 16 226 60 307 112 158 101 234 248 234 451
0 141 -37 240 -120 323 -42 41 -138 97 -216 124 -19 7 -18 9 10 29 227 165
264 510 76 711 -75 79 -172 120 -341 142 -25 3 -56 7 -70 10 -76 13 -426 22
-554 14z m460 -279 c219 -45 311 -138 302 -303 -8 -149 -83 -240 -243 -293
-87 -29 -105 -40 -105 -61 0 -18 23 -27 130 -52 235 -55 343 -172 336 -364 -3
-88 -12 -122 -43 -170 -65 -98 -189 -139 -435 -143 -98 -2 -160 1 -164 7 -5 7
-9 1352 -5 1391 2 14 136 7 227 -12z"/>
<path d="M1555 2473 c-82 -4 -125 -12 -125 -24 0 -5 37 -58 82 -117 45 -59 82
-108 82 -108 1 -1 51 -4 111 -8 216 -11 316 -59 375 -180 58 -118 36 -255 -55
-339 -56 -53 -184 -107 -290 -122 -97 -15 -143 -37 -127 -62 4 -6 29 -27 56
-48 66 -50 87 -72 146 -152 72 -97 59 -79 294 -423 118 -173 223 -326 233
-339 19 -24 20 -24 208 -23 103 1 190 4 192 6 7 7 -118 188 -413 596 -65 91
-126 175 -134 187 -8 12 -34 49 -57 82 -24 33 -43 64 -43 69 0 4 19 15 42 25
133 58 239 167 290 299 27 72 33 234 11 315 -43 153 -173 270 -359 323 -59 17
-91 23 -194 35 -59 7 -248 11 -325 8z"/>
</g>
</svg>
